<svg version="1.1" id="Layer_1" xmlns="http://www.w3.org/2000/svg" xmlns:xlink="http://www.w3.org/1999/xlink" x="0px" y="0px"
	 width="100%" viewBox="0 0 500 500" enable-background="new 0 0 500 500" xml:space="preserve">
<path fill="#ECECEC" opacity="1.000000" stroke="none" 
	d="
M1.000000,182.000000 
	C1.000000,121.348358 1.000000,61.196712 1.000000,1.022534 
	C167.610016,1.022534 334.220062,1.022534 500.915039,1.022534 
	C500.915039,167.568375 500.915039,334.136810 500.915039,500.852631 
	C334.333435,500.852631 167.666733,500.852631 1.000000,500.852631 
	C1.000000,394.779816 1.000000,288.639893 1.000000,182.000000 
M367.500000,70.023552 
	C266.420929,70.023552 165.341873,70.023552 64.304886,70.023552 
	C64.304886,190.969620 64.304886,311.353516 64.304886,431.695435 
	C188.969986,431.695435 313.353333,431.695435 437.695312,431.695435 
	C437.695312,311.030060 437.695312,190.646149 437.695312,70.023521 
	C414.443054,70.023521 391.471527,70.023521 367.500000,70.023552 
z"/>
<path fill="#080808" opacity="1.000000" stroke="none" 
	d="
M368.000000,70.023537 
	C391.471527,70.023521 414.443054,70.023521 437.695312,70.023521 
	C437.695312,190.646149 437.695312,311.030060 437.695312,431.695435 
	C313.353333,431.695435 188.969986,431.695435 64.304886,431.695435 
	C64.304886,311.353516 64.304886,190.969620 64.304886,70.023552 
	C165.341873,70.023552 266.420929,70.023552 368.000000,70.023537 
M435.227936,401.500153 
	C435.227936,292.118652 435.227936,182.737167 435.227936,73.489182 
	C311.925598,73.489182 189.520645,73.489182 67.117058,73.489182 
	C67.117058,192.027481 67.117058,310.250580 67.117058,428.581818 
	C189.874878,428.581818 312.278778,428.581818 435.227570,428.581818 
	C435.227570,419.737396 435.227570,411.118774 435.227936,401.500153 
z"/>
<path fill="#FEFEFE" opacity="1.000000" stroke="none" 
	d="
M435.227753,402.000183 
	C435.227570,411.118774 435.227570,419.737396 435.227570,428.581818 
	C312.278778,428.581818 189.874878,428.581818 67.117058,428.581818 
	C67.117058,310.250580 67.117058,192.027481 67.117058,73.489182 
	C189.520645,73.489182 311.925598,73.489182 435.227936,73.489182 
	C435.227936,182.737167 435.227936,292.118652 435.227753,402.000183 
M406.001709,183.500000 
	C406.001709,163.570435 406.001709,143.640869 406.001709,123.591187 
	C302.428864,123.591187 199.395966,123.591187 96.349014,123.591187 
	C96.349014,172.534592 96.349014,221.222443 96.349014,269.701721 
	C199.736267,269.701721 302.772461,269.701721 406.001648,269.701721 
	C406.001648,241.101288 406.001648,212.800644 406.001709,183.500000 
M274.745117,338.392548 
	C273.161072,332.222778 274.238098,326.691498 279.467316,322.752167 
	C284.002167,319.335938 289.765991,318.695282 293.895721,322.248413 
	C300.220581,327.690186 306.871582,324.697845 313.659790,325.645050 
	C309.687531,311.572327 294.759308,303.895844 279.845642,307.601440 
	C264.700226,311.364624 256.705963,324.504303 259.884705,340.410156 
	C262.848541,355.240936 277.020996,363.882782 293.492432,360.902954 
	C307.653961,358.341003 316.471313,345.527954 314.531281,330.222870 
	C304.667969,330.222870 294.795593,330.222870 284.920837,330.222870 
	C284.920837,333.764465 284.920837,337.013550 284.920837,340.878906 
	C289.533020,340.878906 293.855621,340.878906 298.863037,340.878906 
	C295.915344,346.310669 291.820404,348.025604 286.910828,347.893524 
	C281.032471,347.735321 276.829742,344.950684 274.745117,338.392548 
M346.077515,344.419952 
	C348.371887,347.480377 351.192902,350.281250 352.854828,353.653351 
	C356.732330,361.520874 363.138611,360.898224 369.988922,359.887329 
	C369.988922,342.510437 369.988922,325.430664 369.988922,308.200134 
	C365.070923,308.200134 360.354706,308.200134 355.037903,308.200134 
	C355.037903,316.612854 355.037903,324.757111 355.037903,334.026794 
	C349.693176,326.904327 345.116425,320.817810 340.553223,314.721161 
	C334.814240,307.053558 332.698151,306.307251 323.234375,308.609100 
	C323.234375,325.721466 323.234375,342.812958 323.234375,360.042603 
	C328.185394,360.042603 332.912048,360.042603 338.162170,360.042603 
	C338.162170,351.500977 338.162170,343.167236 338.162170,333.836853 
	C341.120514,337.769806 343.399597,340.799713 346.077515,344.419952 
M132.466309,343.735413 
	C137.053482,327.521942 130.934235,313.037506 116.396988,309.784790 
	C105.916634,307.439880 94.787292,307.995544 84.044014,307.264038 
	C84.044014,325.711151 84.044014,342.814178 84.044014,360.054779 
	C92.591377,360.054779 100.901024,360.400940 109.169868,359.968018 
	C119.759262,359.413605 127.872078,354.623352 132.466309,343.735413 
M227.244949,347.769958 
	C228.254913,337.894073 223.949677,332.440613 212.650833,329.148560 
	C209.161346,328.131866 205.633423,327.146942 202.312836,325.709259 
	C201.259842,325.253357 200.055161,323.194458 200.293060,322.196411 
	C200.601852,320.900909 202.087128,319.436584 203.409119,318.915558 
	C207.474030,317.313477 210.635635,319.248779 212.825256,324.298706 
	C217.226151,324.298706 221.661194,324.298706 226.248001,324.298706 
	C226.634796,319.247314 224.802536,315.319061 221.390839,312.111176 
	C214.233246,305.381165 198.098511,304.739044 190.812668,311.293793 
	C188.515991,313.360016 186.656921,316.634399 185.994385,319.661591 
	C183.908035,329.194183 189.146378,335.783417 200.308197,338.793640 
	C203.649200,339.694672 207.033920,340.632721 210.138931,342.102417 
	C211.235855,342.621613 212.254105,344.896942 212.035904,346.148682 
	C211.825882,347.353699 210.142181,348.768829 208.809265,349.225281 
	C204.462555,350.713806 201.531189,348.825684 199.139435,343.492798 
	C194.527542,343.492798 189.934509,343.492798 185.342056,343.492798 
	C185.487610,351.549500 188.933228,356.875549 195.942856,359.521240 
	C202.697662,362.070709 209.649796,362.089111 216.502686,359.951508 
	C222.111465,358.201996 225.963348,354.562500 227.244949,347.769958 
M405.610962,323.062805 
	C410.262207,323.758270 414.913422,324.453735 419.564667,325.149200 
	C419.973633,324.613983 420.382599,324.078796 420.791534,323.543579 
	C419.150116,320.093262 418.119720,316.134277 415.751282,313.289124 
	C408.977112,305.151520 391.450806,304.241974 383.890137,311.697144 
	C381.491577,314.062225 379.681091,317.824921 379.199432,321.177612 
	C377.923126,330.061615 383.245544,335.981079 393.805206,338.818726 
	C397.146820,339.716736 400.526611,340.679504 403.626282,342.161835 
	C404.751190,342.699768 405.846893,344.981903 405.609955,346.208130 
	C405.375946,347.419037 403.601105,348.769165 402.222626,349.240387 
	C397.988159,350.688019 395.232605,348.885437 392.504303,343.444794 
	C387.991333,343.444794 383.529633,343.444794 379.083862,343.444794 
	C378.703186,350.923309 381.802399,356.151581 388.399506,359.074860 
	C395.070923,362.031036 402.015991,362.093719 408.922668,360.232147 
	C416.431427,358.208252 420.549530,353.165527 420.968964,346.150391 
	C421.402161,338.904816 418.216614,333.971008 410.594635,330.910522 
	C406.606201,329.309052 402.350220,328.386444 398.266205,327.005951 
	C395.694336,326.136627 392.471313,324.676849 394.071442,321.616455 
	C394.965088,319.907288 398.557831,319.030060 400.984131,318.924683 
	C402.380432,318.864014 403.876129,321.091797 405.610962,323.062805 
M168.508911,327.808960 
	C164.888367,327.808960 161.267822,327.808960 157.423584,327.808960 
	C157.423584,325.061829 157.423584,322.818085 157.423584,319.940369 
	C164.387909,319.940369 171.254837,319.940369 177.834961,319.940369 
	C177.834961,315.561951 177.834961,311.819336 177.834961,308.303955 
	C165.777557,308.303955 154.064438,308.303955 142.462830,308.303955 
	C142.462830,325.771973 142.462830,342.850555 142.462830,359.918335 
	C154.790176,359.918335 166.826813,359.918335 178.806580,359.918335 
	C178.806580,355.810486 178.806580,352.054291 178.806580,347.822266 
	C171.512756,347.822266 164.445969,347.822266 157.522858,347.822266 
	C157.522858,344.928741 157.522858,342.532288 157.522858,339.839783 
	C163.804077,339.839783 169.750046,339.839783 175.807144,339.839783 
	C175.807144,335.663605 175.807144,331.806854 175.807144,327.808899 
	C173.470306,327.808899 171.481812,327.808899 168.508911,327.808960 
M238.579636,360.255035 
	C242.658066,360.255035 246.736511,360.255035 250.699829,360.255035 
	C250.699829,342.434906 250.699829,325.242615 250.699829,308.229065 
	C245.628769,308.229065 240.891846,308.229065 235.957260,308.229065 
	C235.957260,324.809326 235.929367,341.084229 236.027313,357.358337 
	C236.033142,358.323883 237.049484,359.283325 238.579636,360.255035 
z"/>
<path fill="#020202" opacity="1.000000" stroke="none" 
	d="
M406.001678,184.000000 
	C406.001648,212.800644 406.001648,241.101288 406.001648,269.701721 
	C302.772461,269.701721 199.736267,269.701721 96.349014,269.701721 
	C96.349014,221.222443 96.349014,172.534592 96.349014,123.591187 
	C199.395966,123.591187 302.428864,123.591187 406.001709,123.591187 
	C406.001709,143.640869 406.001709,163.570435 406.001678,184.000000 
M325.901855,218.218689 
	C327.006897,218.144577 328.111969,218.070450 329.865448,217.952850 
	C326.775208,213.276932 323.975616,209.040756 321.157410,204.776474 
	C327.794586,201.384277 330.099396,197.663071 329.448517,191.770691 
	C328.890259,186.716370 325.915466,182.676041 320.859039,182.120346 
	C315.020966,181.478714 309.058289,181.971161 303.101440,181.971161 
	C303.101440,193.990601 303.101440,205.930161 303.101440,218.261444 
	C304.679291,218.098282 306.014465,217.960205 307.612549,217.794937 
	C307.612549,213.417053 307.612549,209.470810 307.612549,205.584259 
	C312.702942,204.142426 316.415375,204.906418 318.957214,209.838898 
	C320.511017,212.854095 323.012756,215.380814 325.901855,218.218689 
M366.708252,205.515198 
	C366.328918,202.904480 367.010895,201.545502 370.095032,201.744522 
	C374.212372,202.010208 378.359741,201.810196 382.657349,201.810196 
	C382.657349,200.135681 382.657349,198.813980 382.657349,197.104126 
	C377.204773,197.104126 372.119019,197.104126 367.063477,197.104126 
	C367.063477,193.166199 367.063477,189.637375 367.063477,185.861572 
	C372.854279,185.861572 378.295685,185.861572 383.895721,185.861572 
	C383.895721,184.236038 383.895721,182.873886 383.895721,181.633316 
	C376.422424,181.633316 369.332123,181.633316 362.235962,181.633316 
	C362.235962,193.949066 362.235962,205.983154 362.235962,217.970367 
	C369.941254,217.970367 377.340454,217.970367 384.830322,217.970367 
	C384.830322,216.567764 384.830322,215.453735 384.830322,213.881317 
	C378.774017,213.881317 372.853546,213.881317 366.708344,213.881317 
	C366.708344,211.114502 366.708344,208.804962 366.708252,205.515198 
M252.791321,216.680145 
	C249.585754,211.062546 246.380173,205.444962 243.820663,200.959579 
	C246.919434,194.102539 249.606766,188.155914 252.366821,182.048370 
	C247.341614,181.220032 247.341614,181.220032 244.952988,187.658234 
	C241.492203,196.986298 238.962082,198.480133 229.536621,196.409805 
	C229.536621,191.590317 229.536621,186.672058 229.536621,181.614227 
	C227.855957,181.614227 226.608765,181.614227 225.222046,181.614227 
	C225.222046,193.934692 225.222046,206.019577 225.222046,218.415253 
	C226.893982,218.163895 228.270859,217.956894 229.987183,217.698868 
	C229.987183,212.213760 229.987183,207.130463 229.987183,202.089081 
	C238.783188,201.522339 238.782471,201.522751 242.870377,208.776627 
	C244.175674,211.092865 245.624847,213.340530 246.759750,215.737228 
	C248.270905,218.928482 250.417572,218.878021 252.791321,216.680145 
M147.879517,218.168472 
	C154.429382,219.293839 152.423981,212.415070 155.567657,210.123215 
	C161.171967,210.123215 166.976456,210.123215 172.364441,210.123215 
	C175.644760,212.548767 173.768677,219.849945 181.149200,217.815674 
	C176.421097,206.334412 171.812927,194.995316 167.013840,183.737595 
	C166.568359,182.692566 164.957565,181.666183 163.801178,181.558090 
	C162.923035,181.475967 161.426559,182.668152 161.025864,183.633835 
	C156.323807,194.965942 151.776993,206.362457 147.879517,218.168472 
M133.615540,200.167374 
	C135.989563,194.079788 138.363571,187.992203 140.749893,181.873077 
	C137.174545,180.656113 135.771820,181.865921 134.687500,184.778702 
	C131.501480,193.337128 127.982437,201.771591 124.136871,211.398453 
	C120.342133,201.727310 116.949440,193.291763 113.740005,184.787064 
	C112.615944,181.808426 111.095314,180.487686 107.601830,182.096863 
	C112.140091,193.530334 116.545135,204.787323 121.149536,215.962189 
	C121.572319,216.988297 123.296097,218.107605 124.365120,218.059448 
	C125.413010,218.012222 126.853271,216.729065 127.329147,215.641647 
	C129.457764,210.777573 131.303375,205.789673 133.615540,200.167374 
M275.952637,198.718964 
	C273.191162,193.982590 270.452393,189.232819 267.660797,184.514252 
	C265.548950,180.944595 265.518982,180.962326 261.054382,182.230270 
	C266.363434,193.859055 277.536224,203.247284 273.873108,217.998062 
	C276.014343,217.998062 277.280182,217.998062 279.540833,217.998062 
	C275.042542,202.880600 287.330292,193.863647 291.472870,181.311371 
	C289.230438,181.973068 286.931000,182.879257 285.742645,184.567535 
	C282.416107,189.293427 279.548737,194.342529 275.952637,198.718964 
M209.382370,213.924728 
	C205.098419,213.924728 200.814484,213.924728 196.073822,213.924728 
	C196.073822,202.892105 196.073822,192.318634 196.073822,181.745178 
	C195.644150,181.452896 195.214478,181.160614 194.784805,180.868332 
	C193.712341,181.908417 191.728836,182.930267 191.707611,183.991394 
	C191.481781,195.276428 191.567429,206.567688 191.567429,217.931686 
	C199.279175,217.931686 206.524780,217.931686 213.676041,217.931686 
	C214.854340,214.373642 213.261932,213.541901 209.382370,213.924728 
M347.182892,189.583054 
	C347.182556,187.926712 347.088776,186.264023 347.200897,184.615326 
	C347.453339,180.902893 345.572937,180.942856 342.913940,181.965973 
	C342.913940,193.980881 342.913940,205.854492 342.913940,218.127731 
	C344.465912,218.051392 345.796692,217.985947 347.182953,217.917770 
	C347.182953,208.450272 347.182953,199.506943 347.182892,189.583054 
z"/>
<path fill="#050505" opacity="1.000000" stroke="none" 
	d="
M274.834564,338.782166 
	C276.829742,344.950684 281.032471,347.735321 286.910828,347.893524 
	C291.820404,348.025604 295.915344,346.310669 298.863037,340.878906 
	C293.855621,340.878906 289.533020,340.878906 284.920837,340.878906 
	C284.920837,337.013550 284.920837,333.764465 284.920837,330.222870 
	C294.795593,330.222870 304.667969,330.222870 314.531281,330.222870 
	C316.471313,345.527954 307.653961,358.341003 293.492432,360.902954 
	C277.020996,363.882782 262.848541,355.240936 259.884705,340.410156 
	C256.705963,324.504303 264.700226,311.364624 279.845642,307.601440 
	C294.759308,303.895844 309.687531,311.572327 313.659790,325.645050 
	C306.871582,324.697845 300.220581,327.690186 293.895721,322.248413 
	C289.765991,318.695282 284.002167,319.335938 279.467316,322.752167 
	C274.238098,326.691498 273.161072,332.222778 274.834564,338.782166 
z"/>
<path fill="#030303" opacity="1.000000" stroke="none" 
	d="
M345.878113,344.124817 
	C343.399597,340.799713 341.120514,337.769806 338.162170,333.836853 
	C338.162170,343.167236 338.162170,351.500977 338.162170,360.042603 
	C332.912048,360.042603 328.185394,360.042603 323.234375,360.042603 
	C323.234375,342.812958 323.234375,325.721466 323.234375,308.609100 
	C332.698151,306.307251 334.814240,307.053558 340.553223,314.721161 
	C345.116425,320.817810 349.693176,326.904327 355.037903,334.026794 
	C355.037903,324.757111 355.037903,316.612854 355.037903,308.200134 
	C360.354706,308.200134 365.070923,308.200134 369.988922,308.200134 
	C369.988922,325.430664 369.988922,342.510437 369.988922,359.887329 
	C363.138611,360.898224 356.732330,361.520874 352.854828,353.653351 
	C351.192902,350.281250 348.371887,347.480377 345.878113,344.124817 
z"/>
<path fill="#030303" opacity="1.000000" stroke="none" 
	d="
M132.325668,344.103455 
	C127.872078,354.623352 119.759262,359.413605 109.169868,359.968018 
	C100.901024,360.400940 92.591377,360.054779 84.044014,360.054779 
	C84.044014,342.814178 84.044014,325.711151 84.044014,307.264038 
	C94.787292,307.995544 105.916634,307.439880 116.396988,309.784790 
	C130.934235,313.037506 137.053482,327.521942 132.325668,344.103455 
M98.903496,335.486511 
	C98.903496,339.227051 98.903496,342.967590 98.903496,346.806763 
	C106.281837,346.853546 113.250076,347.663849 117.121773,340.423706 
	C119.773964,335.464050 119.486435,330.325287 115.941902,325.944336 
	C111.479729,320.429199 105.202393,321.343262 98.903397,321.491394 
	C98.903397,326.210632 98.903397,330.354553 98.903496,335.486511 
z"/>
<path fill="#070707" opacity="1.000000" stroke="none" 
	d="
M227.195190,348.162750 
	C225.963348,354.562500 222.111465,358.201996 216.502686,359.951508 
	C209.649796,362.089111 202.697662,362.070709 195.942856,359.521240 
	C188.933228,356.875549 185.487610,351.549500 185.342056,343.492798 
	C189.934509,343.492798 194.527542,343.492798 199.139435,343.492798 
	C201.531189,348.825684 204.462555,350.713806 208.809265,349.225281 
	C210.142181,348.768829 211.825882,347.353699 212.035904,346.148682 
	C212.254105,344.896942 211.235855,342.621613 210.138931,342.102417 
	C207.033920,340.632721 203.649200,339.694672 200.308197,338.793640 
	C189.146378,335.783417 183.908035,329.194183 185.994385,319.661591 
	C186.656921,316.634399 188.515991,313.360016 190.812668,311.293793 
	C198.098511,304.739044 214.233246,305.381165 221.390839,312.111176 
	C224.802536,315.319061 226.634796,319.247314 226.248001,324.298706 
	C221.661194,324.298706 217.226151,324.298706 212.825256,324.298706 
	C210.635635,319.248779 207.474030,317.313477 203.409119,318.915558 
	C202.087128,319.436584 200.601852,320.900909 200.293060,322.196411 
	C200.055161,323.194458 201.259842,325.253357 202.312836,325.709259 
	C205.633423,327.146942 209.161346,328.131866 212.650833,329.148560 
	C223.949677,332.440613 228.254913,337.894073 227.195190,348.162750 
z"/>
<path fill="#060606" opacity="1.000000" stroke="none" 
	d="
M405.469025,322.676147 
	C403.876129,321.091797 402.380432,318.864014 400.984131,318.924683 
	C398.557831,319.030060 394.965088,319.907288 394.071442,321.616455 
	C392.471313,324.676849 395.694336,326.136627 398.266205,327.005951 
	C402.350220,328.386444 406.606201,329.309052 410.594635,330.910522 
	C418.216614,333.971008 421.402161,338.904816 420.968964,346.150391 
	C420.549530,353.165527 416.431427,358.208252 408.922668,360.232147 
	C402.015991,362.093719 395.070923,362.031036 388.399506,359.074860 
	C381.802399,356.151581 378.703186,350.923309 379.083862,343.444794 
	C383.529633,343.444794 387.991333,343.444794 392.504303,343.444794 
	C395.232605,348.885437 397.988159,350.688019 402.222626,349.240387 
	C403.601105,348.769165 405.375946,347.419037 405.609955,346.208130 
	C405.846893,344.981903 404.751190,342.699768 403.626282,342.161835 
	C400.526611,340.679504 397.146820,339.716736 393.805206,338.818726 
	C383.245544,335.981079 377.923126,330.061615 379.199432,321.177612 
	C379.681091,317.824921 381.491577,314.062225 383.890137,311.697144 
	C391.450806,304.241974 408.977112,305.151520 415.751282,313.289124 
	C418.119720,316.134277 419.150116,320.093262 420.791534,323.543579 
	C420.382599,324.078796 419.973633,324.613983 419.564667,325.149200 
	C414.913422,324.453735 410.262207,323.758270 405.469025,322.676147 
z"/>
<path fill="#030303" opacity="1.000000" stroke="none" 
	d="
M169.001099,327.808929 
	C171.481812,327.808899 173.470306,327.808899 175.807144,327.808899 
	C175.807144,331.806854 175.807144,335.663605 175.807144,339.839783 
	C169.750046,339.839783 163.804077,339.839783 157.522858,339.839783 
	C157.522858,342.532288 157.522858,344.928741 157.522858,347.822266 
	C164.445969,347.822266 171.512756,347.822266 178.806580,347.822266 
	C178.806580,352.054291 178.806580,355.810486 178.806580,359.918335 
	C166.826813,359.918335 154.790176,359.918335 142.462830,359.918335 
	C142.462830,342.850555 142.462830,325.771973 142.462830,308.303955 
	C154.064438,308.303955 165.777557,308.303955 177.834961,308.303955 
	C177.834961,311.819336 177.834961,315.561951 177.834961,319.940369 
	C171.254837,319.940369 164.387909,319.940369 157.423584,319.940369 
	C157.423584,322.818085 157.423584,325.061829 157.423584,327.808960 
	C161.267822,327.808960 164.888367,327.808960 169.001099,327.808929 
z"/>
<path fill="#000000" opacity="1.000000" stroke="none" 
	d="
M238.087616,360.250305 
	C237.049484,359.283325 236.033142,358.323883 236.027313,357.358337 
	C235.929367,341.084229 235.957260,324.809326 235.957260,308.229065 
	C240.891846,308.229065 245.628769,308.229065 250.699829,308.229065 
	C250.699829,325.242615 250.699829,342.434906 250.699829,360.255035 
	C246.736511,360.255035 242.658066,360.255035 238.087616,360.250305 
z"/>
<path fill="#F5F5F5" opacity="1.000000" stroke="none" 
	d="
M325.495300,218.172821 
	C323.012756,215.380814 320.511017,212.854095 318.957214,209.838898 
	C316.415375,204.906418 312.702942,204.142426 307.612549,205.584259 
	C307.612549,209.470810 307.612549,213.417053 307.612549,217.794937 
	C306.014465,217.960205 304.679291,218.098282 303.101440,218.261444 
	C303.101440,205.930161 303.101440,193.990601 303.101440,181.971161 
	C309.058289,181.971161 315.020966,181.478714 320.859039,182.120346 
	C325.915466,182.676041 328.890259,186.716370 329.448517,191.770691 
	C330.099396,197.663071 327.794586,201.384277 321.157410,204.776474 
	C323.975616,209.040756 326.775208,213.276932 329.865448,217.952850 
	C328.111969,218.070450 327.006897,218.144577 325.495300,218.172821 
M318.758026,186.133331 
	C315.148560,186.133331 311.539093,186.133331 307.795593,186.133331 
	C307.795593,191.031006 307.795593,195.745773 307.795593,200.630234 
	C311.080902,200.630234 314.052521,200.796310 316.997986,200.589447 
	C320.937561,200.312729 324.159149,198.758316 324.712036,194.331650 
	C325.208374,190.357635 323.349152,187.666000 318.758026,186.133331 
z"/>
<path fill="#E9E9E9" opacity="1.000000" stroke="none" 
	d="
M366.708313,206.005310 
	C366.708344,208.804962 366.708344,211.114502 366.708344,213.881317 
	C372.853546,213.881317 378.774017,213.881317 384.830322,213.881317 
	C384.830322,215.453735 384.830322,216.567764 384.830322,217.970367 
	C377.340454,217.970367 369.941254,217.970367 362.235962,217.970367 
	C362.235962,205.983154 362.235962,193.949066 362.235962,181.633316 
	C369.332123,181.633316 376.422424,181.633316 383.895721,181.633316 
	C383.895721,182.873886 383.895721,184.236038 383.895721,185.861572 
	C378.295685,185.861572 372.854279,185.861572 367.063477,185.861572 
	C367.063477,189.637375 367.063477,193.166199 367.063477,197.104126 
	C372.119019,197.104126 377.204773,197.104126 382.657349,197.104126 
	C382.657349,198.813980 382.657349,200.135681 382.657349,201.810196 
	C378.359741,201.810196 374.212372,202.010208 370.095032,201.744522 
	C367.010895,201.545502 366.328918,202.904480 366.708313,206.005310 
z"/>
<path fill="#EDEDED" opacity="1.000000" stroke="none" 
	d="
M252.916046,217.017914 
	C250.417572,218.878021 248.270905,218.928482 246.759750,215.737228 
	C245.624847,213.340530 244.175674,211.092865 242.870377,208.776627 
	C238.782471,201.522751 238.783188,201.522339 229.987183,202.089081 
	C229.987183,207.130463 229.987183,212.213760 229.987183,217.698868 
	C228.270859,217.956894 226.893982,218.163895 225.222046,218.415253 
	C225.222046,206.019577 225.222046,193.934692 225.222046,181.614227 
	C226.608765,181.614227 227.855957,181.614227 229.536621,181.614227 
	C229.536621,186.672058 229.536621,191.590317 229.536621,196.409805 
	C238.962082,198.480133 241.492203,196.986298 244.952988,187.658234 
	C247.341614,181.220032 247.341614,181.220032 252.366821,182.048370 
	C249.606766,188.155914 246.919434,194.102539 243.820663,200.959579 
	C246.380173,205.444962 249.585754,211.062546 252.916046,217.017914 
z"/>
<path fill="#F2F2F2" opacity="1.000000" stroke="none" 
	d="
M147.534378,217.955231 
	C151.776993,206.362457 156.323807,194.965942 161.025864,183.633835 
	C161.426559,182.668152 162.923035,181.475967 163.801178,181.558090 
	C164.957565,181.666183 166.568359,182.692566 167.013840,183.737595 
	C171.812927,194.995316 176.421097,206.334412 181.149200,217.815674 
	C173.768677,219.849945 175.644760,212.548767 172.364441,210.123215 
	C166.976456,210.123215 161.171967,210.123215 155.567657,210.123215 
	C152.423981,212.415070 154.429382,219.293839 147.534378,217.955231 
M169.996033,202.545410 
	C168.136337,198.055466 166.276642,193.565536 163.968216,187.992233 
	C161.334122,194.532166 159.157593,199.936066 156.835388,205.701660 
	C161.323029,205.701660 165.138687,205.784561 168.940826,205.595627 
	C169.410629,205.572266 169.808456,204.100739 169.996033,202.545410 
z"/>
<path fill="#F0F0F0" opacity="1.000000" stroke="none" 
	d="
M133.433350,200.506927 
	C131.303375,205.789673 129.457764,210.777573 127.329147,215.641647 
	C126.853271,216.729065 125.413010,218.012222 124.365120,218.059448 
	C123.296097,218.107605 121.572319,216.988297 121.149536,215.962189 
	C116.545135,204.787323 112.140091,193.530334 107.601830,182.096863 
	C111.095314,180.487686 112.615944,181.808426 113.740005,184.787064 
	C116.949440,193.291763 120.342133,201.727310 124.136871,211.398453 
	C127.982437,201.771591 131.501480,193.337128 134.687500,184.778702 
	C135.771820,181.865921 137.174545,180.656113 140.749893,181.873077 
	C138.363571,187.992203 135.989563,194.079788 133.433350,200.506927 
z"/>
<path fill="#EDEDED" opacity="1.000000" stroke="none" 
	d="
M276.226410,198.991516 
	C279.548737,194.342529 282.416107,189.293427 285.742645,184.567535 
	C286.931000,182.879257 289.230438,181.973068 291.472870,181.311371 
	C287.330292,193.863647 275.042542,202.880600 279.540833,217.998062 
	C277.280182,217.998062 276.014343,217.998062 273.873108,217.998062 
	C277.536224,203.247284 266.363434,193.859055 261.054382,182.230270 
	C265.518982,180.962326 265.548950,180.944595 267.660797,184.514252 
	C270.452393,189.232819 273.191162,193.982590 276.226410,198.991516 
z"/>
<path fill="#FDFDFD" opacity="1.000000" stroke="none" 
	d="
M209.862976,213.924698 
	C213.261932,213.541901 214.854340,214.373642 213.676041,217.931686 
	C206.524780,217.931686 199.279175,217.931686 191.567429,217.931686 
	C191.567429,206.567688 191.481781,195.276428 191.707611,183.991394 
	C191.728836,182.930267 193.712341,181.908417 194.784805,180.868332 
	C195.214478,181.160614 195.644150,181.452896 196.073822,181.745178 
	C196.073822,192.318634 196.073822,202.892105 196.073822,213.924728 
	C200.814484,213.924728 205.098419,213.924728 209.862976,213.924698 
z"/>
<path fill="#FDFDFD" opacity="1.000000" stroke="none" 
	d="
M347.182922,190.073334 
	C347.182953,199.506943 347.182953,208.450272 347.182953,217.917770 
	C345.796692,217.985947 344.465912,218.051392 342.913940,218.127731 
	C342.913940,205.854492 342.913940,193.980881 342.913940,181.965973 
	C345.572937,180.942856 347.453339,180.902893 347.200897,184.615326 
	C347.088776,186.264023 347.182556,187.926712 347.182922,190.073334 
z"/>
<path fill="#F8F8F8" opacity="1.000000" stroke="none" 
	d="
M98.903442,334.992493 
	C98.903397,330.354553 98.903397,326.210632 98.903397,321.491394 
	C105.202393,321.343262 111.479729,320.429199 115.941902,325.944336 
	C119.486435,330.325287 119.773964,335.464050 117.121773,340.423706 
	C113.250076,347.663849 106.281837,346.853546 98.903496,346.806763 
	C98.903496,342.967590 98.903496,339.227051 98.903442,334.992493 
z"/>
<path fill="#0F0F0E" opacity="1.000000" stroke="none" 
	d="
M319.174622,186.212402 
	C323.349152,187.666000 325.208374,190.357635 324.712036,194.331650 
	C324.159149,198.758316 320.937561,200.312729 316.997986,200.589447 
	C314.052521,200.796310 311.080902,200.630234 307.795593,200.630234 
	C307.795593,195.745773 307.795593,191.031006 307.795593,186.133331 
	C311.539093,186.133331 315.148560,186.133331 319.174622,186.212402 
z"/>
<path fill="#131313" opacity="1.000000" stroke="none" 
	d="
M170.117828,202.922852 
	C169.808456,204.100739 169.410629,205.572266 168.940826,205.595627 
	C165.138687,205.784561 161.323029,205.701660 156.835388,205.701660 
	C159.157593,199.936066 161.334122,194.532166 163.968216,187.992233 
	C166.276642,193.565536 168.136337,198.055466 170.117828,202.922852 
z"/>
</svg>